<svg id="Layer_1" data-name="Layer 1" xmlns="http://www.w3.org/2000/svg" viewBox="0 0 392.21 91.99"><defs><style>.cls-1{fill:#fff;}</style></defs><path class="cls-1" d="M1510.07,950.78a17,17,0,0,1-8.83-2.34,21.21,21.21,0,0,1-6.74-6.45,30.22,30.22,0,0,1-4.2-9.62,41.68,41.68,0,0,1-1.22-11.77,81.62,81.62,0,0,1,1.51-12.69,94.42,94.42,0,0,1,3.76-13.72,93.37,93.37,0,0,1,5.91-13.28,55.34,55.34,0,0,1,8-11.28,38.21,38.21,0,0,1,10-7.86,24.64,24.64,0,0,1,12-3,13.3,13.3,0,0,1,6.79,1.61,13.07,13.07,0,0,1,4.49,4.25,17,17,0,0,1,2.39,6,29.26,29.26,0,0,1,.59,6.74,35.54,35.54,0,0,1-.93,6.25,21.73,21.73,0,0,1-2,5.42,11.58,11.58,0,0,1-3.22,3.81,7.13,7.13,0,0,1-4.35,1.42,5,5,0,0,1-2.24-.78,8.94,8.94,0,0,1-2-1.76,11.61,11.61,0,0,1-1.9-3.42,8.3,8.3,0,0,0,4.15-3.76,23.8,23.8,0,0,0,2.29-5.62,40.17,40.17,0,0,0,1.18-7.42c.13-2.67-.43-4.62-1.66-5.86a5.83,5.83,0,0,0-4.2-1.85q-4.59,0-9.67,4.78a49.65,49.65,0,0,0-9.42,12.94,92.63,92.63,0,0,0-7.33,19,101.76,101.76,0,0,0-3.47,23,34.43,34.43,0,0,0,.74,9.27A18.28,18.28,0,0,0,1503,939a10.61,10.61,0,0,0,3.86,3.52,9.59,9.59,0,0,0,4.3,1.07,14.67,14.67,0,0,0,6.44-1.46,25.06,25.06,0,0,0,5.52-3.62,32.46,32.46,0,0,0,4.3-4.44,32,32,0,0,0,2.78-4,3.07,3.07,0,0,1,1.47-1.56,1.34,1.34,0,0,1,1.36.14,2.22,2.22,0,0,1,.78,1.37,3.58,3.58,0,0,1-.39,2.2,47.87,47.87,0,0,1-4.05,6.64,38.47,38.47,0,0,1-5.37,6,26.92,26.92,0,0,1-6.49,4.35A17.16,17.16,0,0,1,1510.07,950.78Z" transform="translate(-1489.05 -858.79)"/><path class="cls-1" d="M1572.87,917.09a34.39,34.39,0,0,1-2.64,6.93,22.87,22.87,0,0,1-4,5.57,17.28,17.28,0,0,1-5.17,3.66,14.94,14.94,0,0,1-6.3,1.32,10.34,10.34,0,0,1-6.3-1.71,10.53,10.53,0,0,1-3.42-4.25,16.93,16.93,0,0,1-1.36-5.57c-.17-2-.25-3.9-.25-5.66a21.82,21.82,0,0,1,.44-4.1,36.37,36.37,0,0,1,1.22-4.59,32.53,32.53,0,0,1,2-4.69,23.65,23.65,0,0,1,2.88-4.29,8.15,8.15,0,0,1,1.81-2.93,10.53,10.53,0,0,1,2.83-2.1,14.81,14.81,0,0,1,3.47-1.27,15.28,15.28,0,0,1,3.61-.44,1.53,1.53,0,0,1,.54.09,4.75,4.75,0,0,0,.54.2,9.83,9.83,0,0,1,3.17,1,13.28,13.28,0,0,1,3.71,2.63,14.69,14.69,0,0,1,4.35,10.94c0,.52,0,1.16-.1,1.9s-.13,1.39-.19,1.91a49.7,49.7,0,0,0,4.68-2.15c1.63-.84,3.21-1.74,4.74-2.68s2.94-1.91,4.25-2.89a29,29,0,0,0,3.12-2.63,3.54,3.54,0,0,1,1.66-1,.91.91,0,0,1,1,.39,1.89,1.89,0,0,1,.1,1.37,4.88,4.88,0,0,1-1.08,2,28.69,28.69,0,0,1-2.49,2.35q-2,1.75-4.73,3.8c-1.83,1.37-3.81,2.71-6,4A30.9,30.9,0,0,1,1572.87,917.09Zm-22.76,2.34a30.64,30.64,0,0,0,.2,3.47,10.35,10.35,0,0,0,.78,3,5.93,5.93,0,0,0,1.56,2.14,3.75,3.75,0,0,0,2.54.83,6.33,6.33,0,0,0,3.22-.83,10.35,10.35,0,0,0,2.64-2.14,16.24,16.24,0,0,0,2.1-3,27.38,27.38,0,0,0,1.61-3.57c-.46.07-.89.12-1.32.15s-.89,0-1.41,0a9.76,9.76,0,0,1-6.4-2.2,14.46,14.46,0,0,1-4.15-5.61c-.39,1.36-.72,2.7-1,4A19,19,0,0,0,1550.11,919.43Zm6.25-17.19a6,6,0,0,0-.29,1.86,28.85,28.85,0,0,0,.19,3.27,8,8,0,0,0,1,3.08,6.12,6.12,0,0,0,2.49,2.29,10,10,0,0,0,4.74.93c.32,0,.65,0,1,0a8.29,8.29,0,0,0,1-.15c.2-.84.37-1.61.54-2.29a8,8,0,0,0,.24-1.81,18.65,18.65,0,0,0,0-3.81,16.24,16.24,0,0,0-.73-3.56,8.61,8.61,0,0,0-1.37-2.64,2.5,2.5,0,0,0-2-1,6.81,6.81,0,0,0-3.56,1A12.16,12.16,0,0,0,1556.36,902.24Z" transform="translate(-1489.05 -858.79)"/><path class="cls-1" d="M1628.82,928.12a29.12,29.12,0,0,1,.44-4.68c.3-1.76.67-3.57,1.13-5.42s.91-3.67,1.36-5.42.85-3.32,1.17-4.69a5.92,5.92,0,0,0-.09-3.91,2.42,2.42,0,0,0-2.35-1.37,8.33,8.33,0,0,0-3.07,1.37,19.77,19.77,0,0,0-5,4.74,43.49,43.49,0,0,0-5.28,9.08,59.54,59.54,0,0,0-4.05,14.5,12,12,0,0,1-3.52,1.27c-.58.13-1.1.23-1.56.29-1.3.07-2.15-.14-2.54-.63s-.32-1.68.2-3.56c.26-.92.73-2.38,1.41-4.4s1.36-4.21,2-6.59,1.22-4.75,1.71-7.13a32,32,0,0,0,.73-6.2,3.76,3.76,0,0,0-.64-2.54,2.34,2.34,0,0,0-1.8-.68,8.11,8.11,0,0,0-2.93,1,15.7,15.7,0,0,0-4.59,3.81,35.19,35.19,0,0,0-5,7.86,57.77,57.77,0,0,0-4.25,13v-.2l-.39,1.57a9,9,0,0,0-.29,1.46,10.61,10.61,0,0,1-.3,1.47l-4.88,2.15a5.47,5.47,0,0,1-1.22.29,2.24,2.24,0,0,1-1.37-.25,2.15,2.15,0,0,1-.93-1.41,7.18,7.18,0,0,1,.2-3.22l6.15-25.49c.2-.85.36-1.66.49-2.44a15.72,15.72,0,0,0,.24-2.1,5.18,5.18,0,0,0-.14-1.71,22.2,22.2,0,0,1,2.93-1.17c.84-.26,1.53-.46,2-.59a5.74,5.74,0,0,1,1.66-.29c2.08,0,2.77,1.79,2,5.37q-.39,1.56-1.17,4.59a49.22,49.22,0,0,1,3.95-4.45,45.3,45.3,0,0,1,4.25-3.76,21.28,21.28,0,0,1,4.35-2.63,10.63,10.63,0,0,1,4.34-1,4.11,4.11,0,0,1,2.79,1,6.52,6.52,0,0,1,1.75,2.59,11.71,11.71,0,0,1,.74,3.8,27.12,27.12,0,0,1-.2,4.55c1-1.37,2.2-2.75,3.47-4.16a34.33,34.33,0,0,1,4-3.76,23.51,23.51,0,0,1,4.35-2.73,10.23,10.23,0,0,1,4.49-1.07,5.18,5.18,0,0,1,4,1.56,8.65,8.65,0,0,1,2,4,17.88,17.88,0,0,1,.29,5.28,42.66,42.66,0,0,1-.83,5.46l-3.32,13.19q-1.08,4.88,2,4.88a8.94,8.94,0,0,0,5.37-2.34,43.14,43.14,0,0,0,5.71-5.57q2.79-3.23,5.23-6.64t4.1-5.47a2.09,2.09,0,0,1,1.22-.78,1.38,1.38,0,0,1,1.07.24,1.45,1.45,0,0,1,.49,1.13,4,4,0,0,1-.54,2q-2,3.42-4.78,7.57a65.29,65.29,0,0,1-6.2,7.76,37.7,37.7,0,0,1-7.18,6.06,14.53,14.53,0,0,1-7.91,2.44,12.74,12.74,0,0,1-2.69-.29,7,7,0,0,1-2.44-1.08,5.6,5.6,0,0,1-1.8-2.1A7.24,7.24,0,0,1,1628.82,928.12Z" transform="translate(-1489.05 -858.79)"/><path class="cls-1" d="M1663.1,895.9a3.75,3.75,0,0,1,1.86-1,24.85,24.85,0,0,1,2.83-.63,21.73,21.73,0,0,1,2.68-.3,5.15,5.15,0,0,1,1.42,0,7.71,7.71,0,0,1-.49,2.05c-.39,1.31-.88,2.83-1.46,4.59s-1.21,3.57-1.86,5.42-1.14,3.37-1.46,4.54-.72,2.49-1.18,4-.86,2.9-1.22,4.29a29.12,29.12,0,0,0-.73,4,5.3,5.3,0,0,0,.29,2.83,3.86,3.86,0,0,0,1.08,1.61,2,2,0,0,0,1.27.44c1.3,0,2.94-.71,4.93-2.15a55.88,55.88,0,0,0,6-5.12c2.06-2,4-4,5.72-6.06a61.14,61.14,0,0,0,3.9-4.93,3.81,3.81,0,0,1,1.61-1.27,1.43,1.43,0,0,1,1.37.1,1.59,1.59,0,0,1,.59,1.27,3.79,3.79,0,0,1-.64,2,51.19,51.19,0,0,1-4.59,6.49,95.57,95.57,0,0,1-6.44,7.23,59.87,59.87,0,0,1-6.69,5.91c-2.18,1.62-4,2.47-5.32,2.54a7.79,7.79,0,0,1-3.28-.54,10.11,10.11,0,0,1-2.92-1.76,10,10,0,0,1-2.2-2.63,7.11,7.11,0,0,1-1-3.18,38.61,38.61,0,0,1,0-6.69,82.11,82.11,0,0,1,1.08-8.69,70.11,70.11,0,0,1,2-8.45A18.08,18.08,0,0,1,1663.1,895.9Zm13.48-20.8a5.85,5.85,0,0,1-1.13,2.1,7.59,7.59,0,0,1-1.85,1.66,6.1,6.1,0,0,1-2.1.83,2,2,0,0,1-1.76-.4,4.67,4.67,0,0,1-2.15-3.36,5.89,5.89,0,0,1,.88-3.42,9.87,9.87,0,0,1,2.44-2.74,6.4,6.4,0,0,1,2.54-1.31,2.07,2.07,0,0,1,1.81.43,4.1,4.1,0,0,1,1.12,1.66,7.83,7.83,0,0,1,.2,4.55Z" transform="translate(-1489.05 -858.79)"/><path class="cls-1" d="M1699.14,929.29a12.52,12.52,0,0,0,6.69-2.39,52.71,52.71,0,0,0,7.12-5.61,81.36,81.36,0,0,0,6.35-6.59q2.88-3.37,4.35-5.42a3.59,3.59,0,0,1,1.66-1.52,1,1,0,0,1,1.17.25,2,2,0,0,1,.29,1.51,5.41,5.41,0,0,1-.88,2.29,39.52,39.52,0,0,1-2.29,3.37c-1.08,1.47-2.35,3.06-3.81,4.79a72.18,72.18,0,0,1-5,5.27,54,54,0,0,1-5.81,4.88,33.85,33.85,0,0,1-6.25,3.62,15.78,15.78,0,0,1-6.35,1.41,14.5,14.5,0,0,1-7.18-1.61,13.07,13.07,0,0,1-4.59-4.15,16.31,16.31,0,0,1-2.39-5.61,28.46,28.46,0,0,1-.68-6.11,26.87,26.87,0,0,1,1.36-7.52,34.64,34.64,0,0,1,4.06-8.64,26.85,26.85,0,0,1,6.78-7.13,16.07,16.07,0,0,1,9.67-3,7.32,7.32,0,0,1,5.32,2.15,7.5,7.5,0,0,1,2.1,5.86,10.66,10.66,0,0,1-.58,3.47,11.11,11.11,0,0,1-1.56,3,7.88,7.88,0,0,1-2.3,2.1,5.56,5.56,0,0,1-2.88.78,2.14,2.14,0,0,1-1.9-.93,4.69,4.69,0,0,1-.79-2.15,10.61,10.61,0,0,1,0-2.39,5.66,5.66,0,0,1,.35-1.56,2.88,2.88,0,0,1,1.07-1l1.37-.68a2.25,2.25,0,0,0,.93-.88,2.57,2.57,0,0,0,.34-1.27,1.8,1.8,0,0,0-.39-1.17,1.53,1.53,0,0,0-1.27-.49,7.93,7.93,0,0,0-3.18,1.41,20.93,20.93,0,0,0-4.68,4.2,27.9,27.9,0,0,0-4.25,7,25.15,25.15,0,0,0-2,9.77,11.52,11.52,0,0,0,.88,5.27,8.68,8.68,0,0,0,5.67,4.89A12.94,12.94,0,0,0,1699.14,929.29Z" transform="translate(-1489.05 -858.79)"/><path class="cls-1" d="M1754.9,907.91a1.62,1.62,0,0,1,1-.73,1.21,1.21,0,0,1,1,.14,1.3,1.3,0,0,1,.44,1,3.93,3.93,0,0,1-.54,1.85,62,62,0,0,1-5.13,8,88.28,88.28,0,0,1-6.69,8.06,50.22,50.22,0,0,1-6.83,6.2c-2.22,1.63-4.07,2.44-5.57,2.44a10.36,10.36,0,0,1-5.37-1.27,10.16,10.16,0,0,1-3.37-3.12,12.27,12.27,0,0,1-1.71-4.06,12.74,12.74,0,0,1-.29-4q.09-1.56.68-5.61t1.57-9.38q1-5.32,2.19-11.42t2.59-11.77l-3.32.39a26.16,26.16,0,0,1-3,.19,23,23,0,0,1-5.9-.73,23.85,23.85,0,0,1-4.16-1.41,1.05,1.05,0,0,1-.68-1.13,3.47,3.47,0,0,1,.59-1.46,4.9,4.9,0,0,1,1.22-1.27,2.32,2.32,0,0,1,1.32-.54c1.23.13,2.57.24,4,.34a42.37,42.37,0,0,0,4.69.05c1.23-.06,2.42-.16,3.56-.29s2.26-.29,3.37-.49q1.28-4.68,2.49-8.15a21,21,0,0,1,2.2-4.84,2.36,2.36,0,0,1,1.32-.83,11.31,11.31,0,0,1,2.19-.49,9.4,9.4,0,0,1,2.25,0,2.35,2.35,0,0,1,1.56.74c.33.52.46,1.85.39,4a52,52,0,0,1-1.07,8.2,53.94,53.94,0,0,1,7.27.44c2.12.3,3.93.62,5.42,1a29.77,29.77,0,0,1,3.62,1.07c.91.36,1.59.61,2,.74a1,1,0,0,1,.73,1,3.6,3.6,0,0,1-.29,1.61,3.29,3.29,0,0,1-1.13,1.42,2.1,2.1,0,0,1-1.75.39,16.59,16.59,0,0,1-2.2-.39,23.7,23.7,0,0,0-2.93-.49q-1.71-.19-4-.39c-1.57-.13-3.39-.19-5.47-.19-.39,0-.83,0-1.32,0s-1,.05-1.51.05c-.26,1-.51,2.07-.74,3.08a26.28,26.28,0,0,1-.92,3.17q-1.28,3.91-2.93,8.5-1.47,4-3.52,9.18t-4.59,11a14.81,14.81,0,0,0,.15,6.4,7.43,7.43,0,0,0,1.8,3.17,5.14,5.14,0,0,0,3.13,1.18,5.8,5.8,0,0,0,3.56-1,25.46,25.46,0,0,0,4.35-3.27q2.25-2.05,4.54-4.49t4.25-4.79q2-2.34,3.42-4.25C1753.82,909.32,1754.51,908.43,1754.9,907.91Z" transform="translate(-1489.05 -858.79)"/><path class="cls-1" d="M1777.94,917.09a34.37,34.37,0,0,1-2.63,6.93,22.87,22.87,0,0,1-4,5.57,17.28,17.28,0,0,1-5.17,3.66,14.94,14.94,0,0,1-6.3,1.32,10.34,10.34,0,0,1-6.3-1.71,10.53,10.53,0,0,1-3.42-4.25,17.19,17.19,0,0,1-1.37-5.57c-.16-2-.24-3.9-.24-5.66a21.82,21.82,0,0,1,.44-4.1,36.37,36.37,0,0,1,1.22-4.59,32.53,32.53,0,0,1,2-4.69,23.65,23.65,0,0,1,2.88-4.29,7.88,7.88,0,0,1,1.81-2.93,10.53,10.53,0,0,1,2.83-2.1,14.81,14.81,0,0,1,3.47-1.27,15.22,15.22,0,0,1,3.61-.44,1.53,1.53,0,0,1,.54.09,4.75,4.75,0,0,0,.54.2,9.83,9.83,0,0,1,3.17,1,13.28,13.28,0,0,1,3.71,2.63,15.33,15.33,0,0,1,3.08,4.45,15.17,15.17,0,0,1,1.27,6.49c0,.52,0,1.16-.1,1.9s-.13,1.39-.2,1.91a48.69,48.69,0,0,0,4.69-2.15c1.63-.84,3.21-1.74,4.74-2.68s2.94-1.91,4.25-2.89a29,29,0,0,0,3.12-2.63,3.5,3.5,0,0,1,1.66-1,.91.91,0,0,1,1,.39,1.9,1.9,0,0,1,.09,1.37,4.84,4.84,0,0,1-1.07,2,32.26,32.26,0,0,1-2.49,2.35q-2,1.75-4.74,3.8a70.78,70.78,0,0,1-6,4A30.71,30.71,0,0,1,1777.94,917.09Zm-22.75,2.34a28.49,28.49,0,0,0,.2,3.47,10.35,10.35,0,0,0,.78,3,5.93,5.93,0,0,0,1.56,2.14,3.75,3.75,0,0,0,2.54.83,6.36,6.36,0,0,0,3.22-.83,10.35,10.35,0,0,0,2.64-2.14,16.24,16.24,0,0,0,2.1-3,27.38,27.38,0,0,0,1.61-3.57q-.69.1-1.32.15c-.42,0-.9,0-1.42,0a9.75,9.75,0,0,1-6.39-2.2,14.36,14.36,0,0,1-4.15-5.61c-.39,1.36-.72,2.7-1,4A19,19,0,0,0,1755.19,919.43Zm6.25-17.19a6,6,0,0,0-.29,1.86,28.85,28.85,0,0,0,.19,3.27,8,8,0,0,0,1,3.08,6.12,6.12,0,0,0,2.49,2.29,10,10,0,0,0,4.74.93c.32,0,.65,0,1,0a8.29,8.29,0,0,0,1-.15c.19-.84.37-1.61.54-2.29a8,8,0,0,0,.24-1.81,18.65,18.65,0,0,0,0-3.81,16.24,16.24,0,0,0-.73-3.56,8.61,8.61,0,0,0-1.37-2.64,2.5,2.5,0,0,0-2-1,6.87,6.87,0,0,0-3.57,1A12.13,12.13,0,0,0,1761.44,902.24Z" transform="translate(-1489.05 -858.79)"/><path class="cls-1" d="M1817.3,917.09a33.81,33.81,0,0,1-2.64,6.93,22.57,22.57,0,0,1-4,5.57,17.33,17.33,0,0,1-5.18,3.66,14.94,14.94,0,0,1-6.3,1.32,9.67,9.67,0,0,1-9.71-6,16.94,16.94,0,0,1-1.37-5.57c-.16-2-.24-3.9-.24-5.66a21.75,21.75,0,0,1,.43-4.1,36.45,36.45,0,0,1,1.23-4.59,31.44,31.44,0,0,1,2-4.69,22.66,22.66,0,0,1,2.88-4.29,8,8,0,0,1,1.8-2.93,10.58,10.58,0,0,1,2.84-2.1,14.73,14.73,0,0,1,3.46-1.27,15.37,15.37,0,0,1,3.62-.44,1.51,1.51,0,0,1,.53.09c.17.07.35.14.54.2a9.81,9.81,0,0,1,3.18,1,13.57,13.57,0,0,1,3.71,2.63,14.74,14.74,0,0,1,4.34,10.94c0,.52,0,1.16-.1,1.9s-.13,1.39-.19,1.91a48.69,48.69,0,0,0,4.69-2.15c1.62-.84,3.2-1.74,4.73-2.68s3-1.91,4.25-2.89a30.27,30.27,0,0,0,3.13-2.63,3.5,3.5,0,0,1,1.66-1,.89.89,0,0,1,1,.39,1.84,1.84,0,0,1,.1,1.37,5,5,0,0,1-1.07,2,32.26,32.26,0,0,1-2.49,2.35q-2,1.75-4.74,3.8a71,71,0,0,1-6,4A30.9,30.9,0,0,1,1817.3,917.09Zm-22.75,2.34a30.65,30.65,0,0,0,.19,3.47,10.35,10.35,0,0,0,.78,3,5.93,5.93,0,0,0,1.56,2.14,3.77,3.77,0,0,0,2.54.83,6.37,6.37,0,0,0,3.23-.83,10.48,10.48,0,0,0,2.63-2.14,16.24,16.24,0,0,0,2.1-3,26.11,26.11,0,0,0,1.61-3.57c-.45.07-.89.12-1.31.15s-.9,0-1.42,0a9.77,9.77,0,0,1-6.4-2.2,14.46,14.46,0,0,1-4.15-5.61c-.39,1.36-.71,2.7-1,4A19,19,0,0,0,1794.55,919.43Zm6.25-17.19a5.75,5.75,0,0,0-.3,1.86,28.94,28.94,0,0,0,.2,3.27,8,8,0,0,0,1,3.08,6.22,6.22,0,0,0,2.5,2.29,9.94,9.94,0,0,0,4.73.93c.33,0,.65,0,1,0a8.13,8.13,0,0,0,1-.15l.54-2.29a8.05,8.05,0,0,0,.25-1.81,18.65,18.65,0,0,0,0-3.81,16.83,16.83,0,0,0-.74-3.56,8.6,8.6,0,0,0-1.36-2.64,2.51,2.51,0,0,0-2-1,6.86,6.86,0,0,0-3.56,1A12,12,0,0,0,1800.8,902.24Z" transform="translate(-1489.05 -858.79)"/><path class="cls-1" d="M1856.75,935.06a8.32,8.32,0,0,1-3.85-.83,7.16,7.16,0,0,1-2.59-2.2,7.36,7.36,0,0,1-1.27-3.17,9.82,9.82,0,0,1,.19-3.86c.2-.91.52-2.13,1-3.66s.93-3.19,1.42-5,.94-3.58,1.36-5.38a33.68,33.68,0,0,0,.83-4.88,10.42,10.42,0,0,0-.19-3.61,1.66,1.66,0,0,0-1.66-1.42,6.06,6.06,0,0,0-3.22,1,17.43,17.43,0,0,0-3.37,2.78,40.31,40.31,0,0,0-3.42,4q-1.71,2.3-3.37,4.74-.88,3.32-1.47,5.81c-.39,1.66-.73,3.16-1,4.49s-.57,2.51-.83,3.52-.49,2-.69,2.88a3.74,3.74,0,0,1-1.75,1.9,15.35,15.35,0,0,1-3.13,1.52,8.84,8.84,0,0,1-2.88.58c-.81,0-1.15-.29-1-.88.06-.39.27-1.27.63-2.63l1.27-4.84q.73-2.78,1.51-5.9c.52-2.09,1-4.07,1.47-6q.48-2.25,1.07-5c.33-1.56.74-3.39,1.22-5.47s1.06-4.36,1.71-6.84a6,6,0,0,1,1.42-.92,8.24,8.24,0,0,1,1.51-.54,6.49,6.49,0,0,1,1.66-.39,11.67,11.67,0,0,1,1.56.1,7.88,7.88,0,0,1,1.42.34,3.88,3.88,0,0,1,1.32.73c-.2.46-.42,1.09-.68,1.9s-.53,1.68-.79,2.59-.58,2.12-1,3.22a43.29,43.29,0,0,1,2.88-3.56,25.24,25.24,0,0,1,3.51-3.27,18.73,18.73,0,0,1,4.06-2.39,10.92,10.92,0,0,1,4.39-.93,5.49,5.49,0,0,1,3.32,1.07,7.18,7.18,0,0,1,2.3,3,13.06,13.06,0,0,1,1,4.54,17.51,17.51,0,0,1-.73,5.76l-1.07,4.3q-.49,2.05-1.22,4.83t-1.81,6.11a10.56,10.56,0,0,0-.44,3.71c.1,1,.73,1.56,1.9,1.56s2.66-.71,4.45-2.15a46.82,46.82,0,0,0,5.42-5.17c1.82-2,3.55-4.09,5.17-6.2s2.87-3.83,3.71-5.13a5,5,0,0,1,1.66-1.66,1.23,1.23,0,0,1,1.23-.1c.29.2.43.64.43,1.32a6.15,6.15,0,0,1-.78,2.59c-.45.91-1.15,2.11-2.1,3.61s-2.06,3.09-3.37,4.79-2.7,3.4-4.19,5.12a46.13,46.13,0,0,1-4.69,4.69,28.77,28.77,0,0,1-4.84,3.42A9.42,9.42,0,0,1,1856.75,935.06Z" transform="translate(-1489.05 -858.79)"/></svg>
